<?xml version="1.0" encoding="utf-8"?>
<svg viewBox="0 0 64 30" xmlns="http://www.w3.org/2000/svg">
  <g style="" transform="matrix(0.711447, 0, 0, 1, 0, 0)">
    <rect style="paint-order: stroke; vector-effect: non-scaling-stroke; stroke: rgb(74, 74, 74); fill: rgb(66, 66, 66);" x="0" y="0" width="90" height="30" rx="3.457" ry="3.457"/>
    <g id="sym-digit-row" transform="matrix(0.323077, 0, 0, 0.237428, -6.692307, -10.770823)">
      <g id="sym-segment-0" transform="matrix(0.964285, 0, 0, 1.134726, 267.214111, -60.011513)" style="">
        <polygon style="vector-effect: non-scaling-stroke; paint-order: stroke; stroke: rgb(84, 84, 84); fill: rgb(67, 67, 67);" points="-244 104 -192 104.127 -200.689 110.127 -235.334 110.127" id="sym-seg-0-2"/>
        <polygon style="vector-effect: non-scaling-stroke; paint-order: stroke; stroke: rgb(84, 84, 84); fill: rgb(67, 67, 67);" points="-260.937 131.064 -226.736 130.896 -222.936 126.937 -226.736 122.937 -255.256 122.937" id="sym-seg-0-1" transform="matrix(0, 1, -1, 0, -114.936012, 368.937004)"/>
        <polygon style="vector-effect: non-scaling-stroke; paint-order: stroke; stroke: rgb(84, 84, 84); fill: rgb(67, 67, 67);" points="-237.873 148 -232.905 152 -203.095 152 -198.127 148 -203.095 144 -232.905 144" id="sym-seg-0-0"/>
        <polygon style="vector-effect: non-scaling-stroke; paint-order: stroke; stroke: rgb(84, 84, 84); fill: rgb(67, 67, 67);" points="-213.127 123 -178.927 123.04 -175.127 127 -178.927 131 -207.446 131" id="sym-seg-0-3" transform="matrix(0, 1, -1, 0, -67.126999, 321.126999)"/>
        <polygon style="vector-effect: non-scaling-stroke; paint-order: stroke; stroke: rgb(84, 84, 84); fill: rgb(67, 67, 67);" points="-260.937 164.809 -226.736 164.977 -222.936 168.936 -226.736 172.936 -255.256 172.936" id="sym-seg-0-6" transform="matrix(0, -1, 1, 0, -410.809013, -73.064003)"/>
        <polygon style="vector-effect: non-scaling-stroke; paint-order: stroke; stroke: rgb(84, 84, 84); fill: rgb(67, 67, 67);" points="-213.064 172.936 -178.863 172.768 -175.063 168.809 -178.863 164.809 -207.383 164.809" id="sym-seg-0-4" transform="matrix(0, -1, 1, 0, -362.936005, -25.190994)"/>
        <polygon style="vector-effect: non-scaling-stroke; paint-order: stroke; stroke: rgb(84, 84, 84); fill: rgb(67, 67, 67);" points="-244 192.127 -192 192 -200 186 -236 186" id="sym-seg-0-5"/>
      </g>
      <g id="sym-segment-1" transform="matrix(0.928571, 0, 0, 1.124326, 330.428497, -58.013355)" style="">
        <polygon style="vector-effect: non-scaling-stroke; paint-order: stroke; stroke: rgb(84, 84, 84); fill: rgb(67, 67, 67);" points="-244 104 -192 104.127 -200.689 110.127 -235.334 110.127" id="sym-seg-1-2"/>
        <polygon style="vector-effect: non-scaling-stroke; paint-order: stroke; stroke: rgb(84, 84, 84); fill: rgb(67, 67, 67);" points="-260.937 131.064 -226.736 130.896 -222.936 126.937 -226.736 122.937 -255.256 122.937" id="sym-seg-1-1" transform="matrix(0, 1, -1, 0, -114.936012, 368.937004)"/>
        <polygon style="vector-effect: non-scaling-stroke; paint-order: stroke; stroke: rgb(84, 84, 84); fill: rgb(67, 67, 67);" points="-237.873 148 -232.905 152 -203.095 152 -198.127 148 -203.095 144 -232.905 144" id="sym-seg-1-0"/>
        <polygon style="vector-effect: non-scaling-stroke; paint-order: stroke; stroke: rgb(84, 84, 84); fill: rgb(67, 67, 67);" points="-213.127 123 -178.927 123.04 -175.127 127 -178.927 131 -207.446 131" id="sym-seg-1-3" transform="matrix(0, 1, -1, 0, -67.126999, 321.126999)"/>
        <polygon style="vector-effect: non-scaling-stroke; paint-order: stroke; stroke: rgb(84, 84, 84); fill: rgb(67, 67, 67);" points="-260.937 164.809 -226.736 164.977 -222.936 168.936 -226.736 172.936 -255.256 172.936" id="sym-seg-1-6" transform="matrix(0, -1, 1, 0, -410.809013, -73.064003)"/>
        <polygon style="vector-effect: non-scaling-stroke; paint-order: stroke; stroke: rgb(84, 84, 84); fill: rgb(67, 67, 67);" points="-213.064 172.936 -178.863 172.768 -175.063 168.809 -178.863 164.809 -207.383 164.809" id="sym-seg-1-4" transform="matrix(0, -1, 1, 0, -362.936005, -25.190994)"/>
        <polygon style="vector-effect: non-scaling-stroke; paint-order: stroke; stroke: rgb(84, 84, 84); fill: rgb(67, 67, 67);" points="-244 192.127 -192 192 -200 186 -236 186" id="sym-seg-1-5"/>
      </g>
      <g id="sym-segment-2" transform="matrix(0.928572, 0, 0, 1.124326, 398.428711, -58.013355)" style="">
        <polygon style="vector-effect: non-scaling-stroke; paint-order: stroke; stroke: rgb(84, 84, 84); fill: rgb(67, 67, 67);" points="-244 104 -192 104.127 -200.689 110.127 -235.334 110.127" id="sym-seg-2-2"/>
        <polygon style="vector-effect: non-scaling-stroke; paint-order: stroke; stroke: rgb(84, 84, 84); fill: rgb(67, 67, 67);" points="-260.937 131.064 -226.736 130.896 -222.936 126.937 -226.736 122.937 -255.256 122.937" id="sym-seg-2-1" transform="matrix(0, 1, -1, 0, -114.936012, 368.937004)"/>
        <polygon style="vector-effect: non-scaling-stroke; paint-order: stroke; stroke: rgb(84, 84, 84); fill: rgb(67, 67, 67);" points="-237.873 148 -232.905 152 -203.095 152 -198.127 148 -203.095 144 -232.905 144" id="sym-seg-2-0"/>
        <polygon style="vector-effect: non-scaling-stroke; paint-order: stroke; stroke: rgb(84, 84, 84); fill: rgb(67, 67, 67);" points="-213.127 123 -178.927 123.04 -175.127 127 -178.927 131 -207.446 131" id="sym-seg-2-3" transform="matrix(0, 1, -1, 0, -67.126999, 321.126999)"/>
        <polygon style="vector-effect: non-scaling-stroke; paint-order: stroke; stroke: rgb(84, 84, 84); fill: rgb(67, 67, 67);" points="-260.937 164.809 -226.736 164.977 -222.936 168.936 -226.736 172.936 -255.256 172.936" id="sym-seg-2-6" transform="matrix(0, -1, 1, 0, -410.809013, -73.064003)"/>
        <polygon style="vector-effect: non-scaling-stroke; paint-order: stroke; stroke: rgb(84, 84, 84); fill: rgb(67, 67, 67);" points="-213.064 172.936 -178.863 172.768 -175.063 168.809 -178.863 164.809 -207.383 164.809" id="sym-seg-2-4" transform="matrix(0, -1, 1, 0, -362.936005, -25.190994)"/>
        <polygon style="vector-effect: non-scaling-stroke; paint-order: stroke; stroke: rgb(84, 84, 84); fill: rgb(67, 67, 67);" points="-244 192.127 -192 192 -200 186 -236 186" id="sym-seg-2-5"/>
      </g>
      <g id="sym-segment-3" transform="matrix(0.928571, 0, 0, 1.124324, 466.428497, -56.929691)" style="">
        <polygon style="vector-effect: non-scaling-stroke; paint-order: stroke; stroke: rgb(84, 84, 84); fill: rgb(67, 67, 67);" points="-244 104 -192 104.127 -200.689 110.127 -235.334 110.127" id="sym-seg-3-2"/>
        <polygon style="vector-effect: non-scaling-stroke; paint-order: stroke; stroke: rgb(84, 84, 84); fill: rgb(67, 67, 67);" points="-260.937 131.064 -226.736 130.896 -222.936 126.937 -226.736 122.937 -255.256 122.937" id="sym-seg-3-1" transform="matrix(0, 1, -1, 0, -114.936012, 368.937004)"/>
        <polygon style="vector-effect: non-scaling-stroke; paint-order: stroke; stroke: rgb(84, 84, 84); fill: rgb(67, 67, 67);" points="-237.873 148 -232.905 152 -203.095 152 -198.127 148 -203.095 144 -232.905 144" id="sym-seg-3-0"/>
        <polygon style="vector-effect: non-scaling-stroke; paint-order: stroke; stroke: rgb(84, 84, 84); fill: rgb(67, 67, 67);" points="-213.127 123 -178.927 123.04 -175.127 127 -178.927 131 -207.446 131" id="sym-seg-3-3" transform="matrix(0, 1, -1, 0, -67.126999, 321.126999)"/>
        <polygon style="vector-effect: non-scaling-stroke; paint-order: stroke; stroke: rgb(84, 84, 84); fill: rgb(67, 67, 67);" points="-260.937 164.809 -226.736 164.977 -222.936 168.936 -226.736 172.936 -255.256 172.936" id="sym-seg-3-6" transform="matrix(0, -1, 1, 0, -410.809013, -73.064003)"/>
        <polygon style="vector-effect: non-scaling-stroke; paint-order: stroke; stroke: rgb(84, 84, 84); fill: rgb(67, 67, 67);" points="-213.064 172.936 -178.863 172.768 -175.063 168.809 -178.863 164.809 -207.383 164.809" id="sym-seg-3-4" transform="matrix(0, -1, 1, 0, -362.936005, -25.190994)"/>
        <polygon style="vector-effect: non-scaling-stroke; paint-order: stroke; stroke: rgb(84, 84, 84); fill: rgb(67, 67, 67);" points="-244 192.127 -192 192 -200 186 -236 186" id="sym-seg-3-5"/>
      </g>
      <rect x="92" y="154" width="4" height="4" style="vector-effect: non-scaling-stroke; paint-order: stroke; stroke: rgb(84, 84, 84); fill: rgb(67, 67, 67);" id="sym-dot-1000"/>
      <rect x="160" y="154" width="4" height="4" style="vector-effect: non-scaling-stroke; paint-order: stroke; stroke: rgb(84, 84, 84); fill: rgb(67, 67, 67);" id="sym-dot-100"/>
      <rect x="228" y="154" width="4" height="4" style="vector-effect: non-scaling-stroke; paint-order: stroke; stroke: rgb(84, 84, 84); fill: rgb(67, 67, 67);" id="sym-dot-10"/>
    </g>
  </g>
</svg>